<?xml version="1.0" encoding="utf-8"?>
<!-- Generator: Adobe Illustrator 25.0.0, SVG Export Plug-In . SVG Version: 6.00 Build 0)  -->
<svg version="1.1" id="Capa_1" xmlns="http://www.w3.org/2000/svg" xmlns:xlink="http://www.w3.org/1999/xlink" x="0px" y="0px"
	 viewBox="0 0 94.9 94.9" style="enable-background:new 0 0 94.9 94.9;" xml:space="preserve">
<style type="text/css">
	.st0{fill:#E62450;}
</style>
<g>
	<path class="st0" d="M55.9,47.5L94.3,9.1c0.8-0.8,0.8-2.2,0-3l-5.5-5.5C88.4,0.2,87.9,0,87.3,0c-0.6,0-1.1,0.2-1.5,0.6L47.5,39
		L9.1,0.6c-0.8-0.8-2.2-0.8-3,0L0.6,6.1c-0.8,0.8-0.8,2.2,0,3L39,47.5L0.6,85.8c-0.8,0.8-0.8,2.2,0,3l5.5,5.5
		c0.4,0.4,0.9,0.6,1.5,0.6s1.1-0.2,1.5-0.6l38.4-38.4l38.4,38.4c0.4,0.4,0.9,0.6,1.5,0.6s1.1-0.2,1.5-0.6l5.5-5.5
		c0.8-0.8,0.8-2.2,0-3L55.9,47.5z"/>
</g>
</svg>
