<svg xmlns="http://www.w3.org/2000/svg" viewBox="0 0 1400 800"><defs><style>.cls-1,.cls-2{fill:#fff;}.cls-2{font-size:197.64px;font-family:AvenirNextCondensed-Regular, Avenir Next Condensed;letter-spacing:0.04em;}.cls-3{letter-spacing:0.01em;}.cls-4{letter-spacing:0.03em;}.cls-5{font-family:AvenirNextCondensed-Bold, Avenir Next Condensed;font-weight:700;}</style></defs><g id="Calque_4" data-name="Calque 4"><path class="cls-1" d="M461.49,529.53,429.28,387.11l-21.69,23.81-20.68-23.47L353.73,525.76,279.8,365.61l75,56.44L308.21,286.44l74.66,84.75L409,262.35,433.54,371l76.13-83.58L461.62,421.77,537,363.08ZM449.4,441.07,464,505.42l53.08-117ZM299.67,390.22l51.75,112.1,14.86-62Zm136-10.07,12.67,56,41.14-115.07ZM328.17,320.78,367.5,435.26l13.17-54.89Zm60.94,57.49,18.58,21.09,19.51-21.43-18.44-81.56Z"/><text class="cls-2" transform="translate(712.81 478.11) scale(0.85 1)">A<tspan class="cls-3" x="98.62" y="0">L</tspan><tspan class="cls-4" x="171.35" y="0">U</tspan><tspan class="cls-5" x="286.96" y="0">MMI</tspan></text><circle class="cls-1" cx="89.22" cy="197.31" r="35.48"/><circle class="cls-1" cx="702.03" cy="314.81" r="35.48"/><circle class="cls-1" cx="508.3" cy="673.31" r="35.48"/></g><g id="Calque_6" data-name="Calque 6"><path class="cls-1" d="M527.19,142C507.83,81.56,480.46,39.66,448,20.84c-24.89-14.45-51.21-14.45-76.1,0C339.52,39.66,312.15,81.55,292.78,142c-21.1,65.87-31.89,152.67-31.2,250.9-.7,98.36,10.09,185.17,31.19,251,19.37,60.45,46.74,102.35,79.16,121.17,12.44,7.23,25.24,10.84,38,10.84s25.61-3.61,38-10.84c16.23-9.42,31.19-24.62,44.52-45a49.33,49.33,0,0,1-15-8.22c-11.67,17.61-24.5,30.74-38,38.57-19.59,11.37-39.45,11.37-59,0C352.14,734,326.75,694.33,309,638.76c-20.56-64.18-31.07-149.16-30.39-245.86-.68-96.57,9.83-181.54,30.4-245.72,17.8-55.57,43.2-95.22,71.51-111.65C390.26,29.84,400.13,27,410,27s19.73,2.84,29.52,8.53C467.82,52,493.22,91.62,511,147.19c20.56,64.18,31.07,149.15,30.38,245.73V393c.63,89.57-8.37,169.15-26.08,231.43a48.84,48.84,0,0,1,16.15,5.27C549.74,565.82,559,484.39,558.39,393,559.08,294.65,548.29,207.87,527.19,142Z"/></g><g id="Calque_7" data-name="Calque 7"><path class="cls-1" d="M672.09,354c-44.27,50.38-111,102.84-193.33,151.85-82.28,50.59-160.42,85.6-226,101.24C196,620.65,149,619.46,120.23,603.75c-19.87-10.87-30.15-27.87-30.56-50.51-.6-32.73,20.17-75,58.5-119C192.43,383.43,259.69,330.44,342.67,281l.1-.06c82.27-50.58,160.41-85.59,226-101.22,26.16-6.25,50.26-9.35,71.46-9.35,24.79,0,45.61,4.25,61.08,12.72C721.15,194,731.44,211,731.85,233.62c.21,11.42-2.19,24-7,37.42a49.41,49.41,0,0,1,14.09,11c6.84-17.27,10.2-33.62,9.92-48.73-.52-28.78-14.15-51.29-39.39-65.1-32.89-18-82.91-19.72-144.64-5-67.28,16-147.11,51.74-230.88,103.24-84.48,50.32-153.14,104.48-198.56,156.63C93.67,471,72,516.07,72.68,553.55c.53,28.77,14.15,51.28,39.4,65.1,18.13,9.92,41.46,14.89,69.1,14.89,22.5,0,47.84-3.3,75.55-9.9C324,607.58,403.87,571.87,487.55,520.41c84.51-50.32,153.18-104.49,198.61-156.65.51-.58,1-1.16,1.49-1.74A49.39,49.39,0,0,1,672.09,354Z"/></g><g id="Calque_8" data-name="Calque 8"><path class="cls-1" d="M689.68,425.18C644.26,373,575.6,318.87,491.11,268.55c-83.76-51.5-163.6-87.2-230.87-103.25-55.2-13.17-101-13.17-133.62-.16A49.28,49.28,0,0,1,135.43,180c13.72-5,30.39-7.51,49.41-7.51,21.19,0,45.3,3.11,71.46,9.35,65.56,15.64,143.7,50.64,226,101.23l.1.06c83,49.42,150.24,102.4,194.5,153.23,38.33,44,59.1,86.26,58.51,119C735,578,724.68,595,704.81,605.83c-28.72,15.72-75.79,16.91-132.55,3.37-65.56-15.64-143.7-50.64-226.08-101.29-83-49.42-150.23-102.4-194.49-153.22-34.26-39.33-54.48-77.26-58-108.24-1.49.13-3,.21-4.51.21A49.25,49.25,0,0,1,76.52,245c2.8,35.48,24.18,77,62.36,120.85C184.31,418,253,472.18,337.38,522.44,421.17,574,501,609.67,568.32,625.72c27.7,6.61,53,9.91,75.54,9.91,27.63,0,51-5,69.1-14.9,25.25-13.81,38.87-36.32,39.4-65.1C753,518.15,731.37,473,689.68,425.18Z"/></g></svg>