<?xml version="1.0" encoding="utf-8"?>
<!-- Generator: Adobe Illustrator 24.3.0, SVG Export Plug-In . SVG Version: 6.00 Build 0)  -->
<svg version="1.1" id="Capa_1" xmlns="http://www.w3.org/2000/svg" xmlns:xlink="http://www.w3.org/1999/xlink" x="0px" y="0px"
	 viewBox="0 0 55 55" style="enable-background:new 0 0 55 55;" xml:space="preserve">
<style type="text/css">
	.st0{fill:#FFFFFF;}
</style>
<g>
	<path class="st0" d="M20,6.3l15,3.5v40l-15-2.6V6.3 M19,4c-0.2,0-0.4,0.1-0.6,0.2C18.1,4.4,18,4.7,18,5v43c0,0.5,0.3,0.9,0.8,1
		l17,3c0.1,0,0.1,0,0.2,0c0.2,0,0.5-0.1,0.6-0.2c0.2-0.2,0.4-0.5,0.4-0.8V9c0-0.5-0.3-0.9-0.8-1l-17-4C19.2,4,19.1,4,19,4L19,4z"/>
	<g>
		<path class="st0" d="M54.6,2.2C54.3,2,54,1.9,53.7,2.1l-18,6C35.3,8.2,35,8.6,35,9v42c0,0.3,0.2,0.6,0.4,0.8
			c0.2,0.1,0.4,0.2,0.6,0.2c0.1,0,0.2,0,0.4-0.1l18-7c0.4-0.1,0.6-0.5,0.6-0.9V3C55,2.7,54.8,2.4,54.6,2.2z"/>
		<path class="st0" d="M18.8,4l-18,4C0.3,8.1,0,8.5,0,9v43c0,0.3,0.1,0.6,0.4,0.8C0.6,52.9,0.8,53,1,53c0.1,0,0.1,0,0.2,0l18-4
			c0.5-0.1,0.8-0.5,0.8-1V5c0-0.3-0.1-0.6-0.4-0.8C19.4,4,19.1,4,18.8,4z"/>
	</g>
</g>
</svg>
