<?xml version="1.0" encoding="utf-8"?>
<!-- Generator: Adobe Illustrator 24.3.0, SVG Export Plug-In . SVG Version: 6.00 Build 0)  -->
<svg version="1.1" id="Calque_3" xmlns="http://www.w3.org/2000/svg" xmlns:xlink="http://www.w3.org/1999/xlink" x="0px" y="0px"
	 viewBox="0 0 488 488" style="enable-background:new 0 0 488 488;" xml:space="preserve">
<style type="text/css">
	.st0{fill:#FFFFFF;stroke:#E62651;stroke-width:5;stroke-miterlimit:10;}
	.st1{fill:#E62852;stroke:#E62651;stroke-miterlimit:10;}
</style>
<path class="st0" d="M232.5,35.6h21c68.6,0,124.3,55.7,124.3,124.3v175c0,68.6-55.7,124.3-124.3,124.3h-21
	c-68.6,0-124.3-55.7-124.3-124.3v-175C108.2,91.2,163.9,35.6,232.5,35.6z"/>
<path class="st1" d="M246.2,71.7L246.2,71.7c1.8,0,3.2,1.4,3.2,3.2v94.5c0,1.8-1.4,3.2-3.2,3.2h0c-1.8,0-3.2-1.4-3.2-3.2V74.9
	C243,73.2,244.4,71.7,246.2,71.7z"/>
</svg>
