<?xml version="1.0" encoding="utf-8"?>
<!-- Generator: Adobe Illustrator 24.3.0, SVG Export Plug-In . SVG Version: 6.00 Build 0)  -->
<svg version="1.1" id="Calque_1" xmlns="http://www.w3.org/2000/svg" xmlns:xlink="http://www.w3.org/1999/xlink" x="0px" y="0px"
	 viewBox="0 0 28 28" style="enable-background:new 0 0 28 28;" xml:space="preserve">
<style type="text/css">
	.st0{fill:#FFFFFF;}
</style>
<path class="st0" d="M20,21.6l1.7,0.8c0.4,0.2,0.8,0.1,1-0.2c1.2-1.3,2.2-2.9,2.7-4.7c0.1-0.4,0-0.8-0.3-1l-1.5-1.1
	c-0.4-0.3-0.7-0.8-0.7-1.4c0-0.5,0.3-1,0.7-1.4l1.5-1.1c0.3-0.2,0.4-0.6,0.3-1c-0.5-1.7-1.5-3.3-2.7-4.7c-0.3-0.3-0.7-0.4-1-0.2
	L20,6.4c-0.2,0.1-0.4,0.1-0.7,0.1c-0.9,0-1.6-0.7-1.7-1.5l-0.2-1.9c0-0.4-0.3-0.7-0.7-0.8C15.8,2.1,14.9,2,14,2
	c-0.9,0-1.8,0.1-2.7,0.3c-0.4,0.1-0.7,0.4-0.7,0.8L10.4,5C10.3,5.5,10,6,9.5,6.3C9.1,6.5,8.5,6.6,8,6.4L6.3,5.6
	c-0.4-0.2-0.8-0.1-1,0.2C4,7.2,3.1,8.7,2.5,10.5c-0.1,0.4,0,0.8,0.3,1l1.5,1.1C4.8,13,5.1,13.5,5.1,14c0,0.5-0.3,1-0.7,1.4l-1.5,1.1
	c-0.3,0.2-0.4,0.6-0.3,1c0.5,1.7,1.5,3.3,2.7,4.7c0.3,0.3,0.7,0.4,1,0.2L8,21.6c0.5-0.2,1.1-0.2,1.5,0.1c0.5,0.3,0.8,0.7,0.8,1.3
	l0.2,1.9c0,0.4,0.3,0.7,0.7,0.8c1.8,0.4,3.6,0.4,5.4,0c0.4-0.1,0.7-0.4,0.7-0.8l0.2-1.9c0.1-0.5,0.4-1,0.8-1.3
	C18.9,21.5,19.5,21.4,20,21.6z M14,18c-2.2,0-4-1.8-4-4s1.8-4,4-4s4,1.8,4,4S16.2,18,14,18z"/>
</svg>
