<svg xmlns="http://www.w3.org/2000/svg" viewBox="0 0 54 54"><defs><style>.cls-1{fill:#fff;stroke:#7bfffa;stroke-width:2px;}.cls-2{fill:#707070;}</style></defs><g id="Calque_2" data-name="Calque 2"><g id="Calque_1-2" data-name="Calque 1"><g id="Groupe_55" data-name="Groupe 55"><circle id="Ellipse_6" data-name="Ellipse 6" class="cls-1" cx="27" cy="27" r="26"/><path id="Icon_ionic-ios-person" data-name="Icon ionic-ios-person" class="cls-2" d="M44,45.13c-2.1-.69-5.08-.86-7-1.26a7.37,7.37,0,0,1-3.23-1.4c-.54-.61-.22-6.22-.22-6.22a17.92,17.92,0,0,0,1.53-2.74,33.89,33.89,0,0,0,1.13-4.78s1.1,0,1.49-1.82c.42-2,1.08-2.75,1-4.22s-.93-1.42-.93-1.42-.09-1.28,0-5.65c.12-5.18-3.24-10.23-11.08-10.23S15.41,10.44,15.53,15.62a42.6,42.6,0,0,1-.07,5.65s-.84,0-.92,1.42.58,2.24,1,4.22c.38,1.82,1.49,1.82,1.49,1.82a33.89,33.89,0,0,0,1.13,4.78,17.92,17.92,0,0,0,1.53,2.74s.32,5.62-.21,6.22a7.3,7.3,0,0,1-3.24,1.4c-1.92.4-4.9.57-7,1.26-1.91.63,6.16,6,16.83,7.51h1.86C37.24,51.71,45.88,45.76,44,45.13Z"/></g></g></g></svg>