<?xml version="1.0" encoding="utf-8"?>
<!-- Generator: Adobe Illustrator 24.3.0, SVG Export Plug-In . SVG Version: 6.00 Build 0)  -->
<svg version="1.1" id="Layer_1" xmlns="http://www.w3.org/2000/svg" xmlns:xlink="http://www.w3.org/1999/xlink" x="0px" y="0px"
	 viewBox="0 0 285.5 285.5" style="enable-background:new 0 0 285.5 285.5;" xml:space="preserve">
<style type="text/css">
	.st0{fill:#FFFFFF;}
</style>
<g id="XMLID_791_">
	<path id="XMLID_792_" class="st0" d="M142.8,125.5c34.6,0,62.8-28.1,62.8-62.8S177.4,0,142.8,0S80,28.1,80,62.7
		S108.1,125.5,142.8,125.5z M142.8,30c18.1,0,32.8,14.7,32.8,32.8s-14.7,32.8-32.8,32.8S110,80.8,110,62.7S124.7,30,142.8,30z"/>
	<path id="XMLID_795_" class="st0" d="M142.8,155.5c-63.4,0-115,51.6-115,115c0,8.3,6.7,15,15,15h200c8.3,0,15-6.7,15-15
		C257.8,207.1,206.2,155.5,142.8,155.5z M59.1,255.5c7.1-39.7,41.9-70,83.7-70s76.6,30.3,83.7,70H59.1z"/>
</g>
</svg>
