<?xml version="1.0" encoding="utf-8"?>
<!-- Generator: Adobe Illustrator 25.0.0, SVG Export Plug-In . SVG Version: 6.00 Build 0)  -->
<svg version="1.1" id="Layer_1" xmlns="http://www.w3.org/2000/svg" xmlns:xlink="http://www.w3.org/1999/xlink" x="0px" y="0px"
	 viewBox="0 0 512 512" style="enable-background:new 0 0 512 512;" xml:space="preserve">
<style type="text/css">
	.st0{fill:#FFFFFF;}
</style>
<g>
	<g>
		<path class="st0" d="M437,75C388.7,26.6,324.4,0,256,0C187.6,0,123.3,26.6,75,75C26.6,123.3,0,187.6,0,256s26.6,132.7,75,181
			c48.4,48.4,112.6,75,181,75c68.4,0,132.7-26.6,181-75c48.4-48.4,75-112.6,75-181S485.4,123.3,437,75z M256,95.6
			c21.2,0,38.5,17.2,38.5,38.5s-17.2,38.5-38.5,38.5s-38.5-17.2-38.5-38.5S234.8,95.6,256,95.6z M294.5,420.3h-76.9
			c-18.1,0-32.8-14.7-32.8-32.8s14.7-32.8,32.8-32.8h0.9v-80.9c-18.2-2.6-32.1-18.3-32.1-37.1c0-20.7,16.8-37.5,37.5-37.5H256
			c20.7,0,37.5,16.8,37.5,37.5v118h0.9c18.1,0,32.8,14.7,32.8,32.8S312.6,420.3,294.5,420.3z"/>
	</g>
</g>
</svg>
