<?xml version="1.0" encoding="utf-8"?>
<!-- Generator: Adobe Illustrator 25.0.0, SVG Export Plug-In . SVG Version: 6.00 Build 0)  -->
<svg version="1.1" id="Capa_1" xmlns="http://www.w3.org/2000/svg" xmlns:xlink="http://www.w3.org/1999/xlink" x="0px" y="0px"
	 viewBox="0 0 297.9 297.9" style="enable-background:new 0 0 297.9 297.9;" xml:space="preserve">
<style type="text/css">
	.st0{fill:#FFFFFF;}
</style>
<g>
	<path class="st0" d="M264.1,40.6L154,0.9c-1.6-0.6-3.3-0.9-5.1-0.9c-1.7,0-3.4,0.3-5.1,0.9L34,40.7c-5.9,2.2-10.1,7.8-10.1,14.1
		v94.2c0,21,6.8,42.1,19.7,62.5c9.9,15.7,23.7,31,40.8,45.7c28.6,24.5,56.9,38.6,58.1,39.2c2.1,1,4.4,1.6,6.7,1.6
		c2.2,0,4.5-0.5,6.6-1.5c1.2-0.6,29.5-14.5,58.1-38.9c17.1-14.6,30.7-30,40.6-45.7c12.9-20.5,19.4-41.6,19.4-62.9V54.8
		C273.9,48.4,270.1,42.8,264.1,40.6z M47.9,148.9V66c0-3.2,1.9-6,4.9-7.1L146.2,25c0.8-0.3,1.8-0.5,2.8-0.5v124.5h101.7
		c0,0,0,0.1,0,0.2c0,27.1-13.7,54-40.6,80.2c-21,20.4-44.9,35-57.2,41.9c-1.1,0.6-2.9,0.9-3.9,0.9c0-2.3,0-122,0-123.3L47.9,148.9z"
		/>
</g>
</svg>
